<svg version="1.1" id="Layer_1" xmlns="http://www.w3.org/2000/svg" xmlns:xlink="http://www.w3.org/1999/xlink" x="0px" y="0px"
	 width="100%" viewBox="0 0 1024 1024" enable-background="new 0 0 1024 1024" xml:space="preserve">
<path fill="#000000" opacity="1.000000" stroke="none" 
	d="
M562.000122,185.643250 
	C597.997681,185.643448 633.498291,185.940308 668.991943,185.566757 
	C711.449097,185.119934 745.694519,214.630203 753.049561,256.279999 
	C753.479553,258.715057 753.336670,261.264313 753.337097,263.760406 
	C753.349670,343.421539 753.497009,423.083099 753.274109,502.743591 
	C753.182434,535.494873 737.065186,558.850403 708.886230,574.390442 
	C696.513428,581.213745 683.005432,583.905945 668.996277,583.912659 
	C565.337036,583.962158 461.676697,584.200989 358.019012,583.794128 
	C320.348938,583.646240 293.558258,565.421997 278.261261,530.896057 
	C274.468903,522.336548 272.654358,513.182007 272.656342,503.724152 
	C272.672882,425.729553 272.926178,347.733643 272.543457,269.740906 
	C272.365265,233.434357 296.357941,200.461914 330.523682,189.680557 
	C339.144745,186.960098 347.911224,185.557938 357.014496,185.572571 
	C425.176208,185.682190 493.338165,185.638626 562.000122,185.643250 
M697.280151,264.323975 
	C695.295288,253.097656 689.326477,245.432663 677.826660,242.912018 
	C673.120789,241.880539 668.348206,241.344391 663.483948,241.350235 
	C614.990479,241.408417 566.496887,241.411026 518.003479,241.335266 
	C513.479004,241.328186 509.037262,241.749084 504.615082,242.510620 
	C486.547791,245.621918 479.026825,258.562439 478.583984,273.697479 
	C478.218414,286.192871 486.413544,299.341919 503.916504,301.704834 
	C512.453918,302.857422 521.218262,302.542725 529.674805,304.046021 
	C573.279114,311.797668 603.583801,349.398499 602.417419,393.564789 
	C602.318848,397.295441 601.096680,398.442902 597.465759,398.399506 
	C583.969421,398.238220 570.469238,398.239746 556.972473,398.374939 
	C553.339600,398.411377 551.842346,397.583588 551.510925,393.465668 
	C549.822876,372.488495 535.499329,359.320190 514.635681,358.136566 
	C502.925415,357.472260 491.192749,357.248413 479.704742,353.491516 
	C448.660492,343.339081 424.813385,311.208893 424.645660,278.575714 
	C424.589050,267.562744 427.313446,257.195984 430.912018,246.981232 
	C432.178741,243.385529 431.503723,241.363892 427.481354,241.429260 
	C402.175262,241.840530 376.840637,240.229752 351.562103,242.329330 
	C341.305939,243.181168 333.127441,250.184906 330.503235,260.201538 
	C329.156128,265.343567 328.335144,270.611938 328.336029,275.974243 
	C328.347778,347.631348 328.370758,419.288483 328.308655,490.945526 
	C328.303406,496.997375 329.291107,502.882355 330.537292,508.717712 
	C332.474365,517.788391 342.150726,526.597107 351.151123,527.559143 
	C356.771912,528.159851 362.443817,528.559509 368.093536,528.568665 
	C413.087402,528.641357 458.081421,528.597351 503.075409,528.593506 
	C508.895599,528.592957 514.700684,528.609680 520.483887,527.647034 
	C538.025024,524.727417 548.679260,510.778564 547.312927,493.766937 
	C546.289124,481.019592 534.786499,470.869141 521.387634,469.292084 
	C510.682098,468.032013 499.835449,468.326599 489.233765,465.855865 
	C449.169128,456.518677 422.763184,421.433228 424.621246,380.024475 
	C424.784790,376.379211 426.259521,375.569214 429.484985,375.593170 
	C442.649109,375.691101 455.814667,375.589935 468.979218,375.652832 
	C471.775909,375.666199 474.944550,374.682220 477.282776,376.334473 
	C479.517151,377.913330 477.888306,381.043945 478.546661,383.409241 
	C478.989441,385.000122 479.183868,386.659088 479.512421,388.282928 
	C483.054138,405.788208 496.213226,416.201843 514.176025,416.835876 
	C521.276245,417.086487 528.483459,417.029053 535.529846,418.152679 
	C558.827759,421.867676 576.515381,434.392914 588.958618,454.035858 
	C598.452209,469.022491 602.455139,485.614319 600.467041,503.505005 
	C599.543884,511.812073 597.077942,519.682556 594.476868,527.474854 
	C595.943481,528.710693 597.510010,528.496582 598.952271,528.500183 
	C620.949036,528.555664 642.948975,528.782532 664.940857,528.463074 
	C672.500732,528.353271 680.218384,527.875061 686.776917,522.839905 
	C695.520813,516.126892 697.572388,506.680573 697.587830,496.642578 
	C697.703308,421.486115 697.652527,346.329376 697.643494,271.172729 
	C697.643250,269.175446 697.526611,267.178162 697.280151,264.323975 
z"/>
<path fill="#000000" opacity="1.000000" stroke="none" 
	d="
M542.997681,670.000000 
	C542.999451,662.834045 543.086975,656.166565 542.968201,649.502747 
	C542.903870,645.893250 544.307617,644.423767 548.011658,644.610718 
	C552.799927,644.852417 557.609680,644.669678 561.966370,644.669678 
	C564.057922,647.038330 562.787720,649.461548 563.731445,651.407532 
	C564.829590,652.188538 565.591309,651.413757 566.370178,650.827026 
	C589.731628,633.229309 619.660645,645.214966 624.182190,674.161621 
	C626.487061,688.917114 623.169617,701.994812 612.212585,713.019104 
	C601.383057,723.915039 577.472656,726.745300 565.673584,714.934814 
	C565.338440,714.599365 564.837891,714.429260 564.382385,714.163330 
	C562.677063,715.217834 563.414429,716.882629 563.396667,718.218628 
	C563.303528,725.216736 563.535645,732.223694 563.275269,739.213379 
	C563.125793,743.225769 564.248901,745.101685 568.560303,744.714355 
	C571.866272,744.417297 575.224792,744.764404 578.552795,744.637085 
	C581.479370,744.525208 582.560303,745.451416 582.543823,748.654907 
	C582.387268,779.150757 582.419373,809.647583 582.390259,840.144104 
	C582.383301,847.384827 582.371155,847.387146 574.901672,847.399475 
	C572.401917,847.403564 569.882324,847.189941 567.406799,847.432800 
	C562.898254,847.875061 561.743835,845.809082 561.760193,841.586609 
	C561.876831,811.590088 561.827209,781.592712 561.733154,751.595947 
	C561.725891,749.262390 563.041687,745.928955 560.204773,744.825439 
	C557.006104,743.581360 553.207214,743.695190 549.910828,744.830261 
	C547.335571,745.717102 548.321899,748.582458 548.318481,750.616821 
	C548.269714,779.447266 548.332886,808.277771 548.277954,837.108154 
	C548.255127,849.069031 549.341187,847.370850 537.766296,847.354919 
	C525.145996,847.337646 526.947266,848.909546 526.900757,836.493042 
	C526.794006,807.996216 526.969360,779.498108 526.763794,751.002380 
	C526.727417,745.959839 528.245239,744.420227 533.308105,744.533630 
	C542.944458,744.749451 543.030701,746.732178 543.015686,734.993958 
	C542.988098,713.495972 543.001343,691.997986 542.997681,670.000000 
M600.520264,671.089111 
	C596.410706,663.593811 587.374573,660.497620 580.106079,662.022949 
	C568.668579,664.423340 562.424377,674.729797 564.430725,687.455688 
	C565.738831,695.752625 572.303101,702.430054 580.439453,703.740173 
	C589.206665,705.151855 596.664795,701.536987 600.731079,693.693604 
	C604.489014,686.444763 604.507751,679.091980 600.520264,671.089111 
z"/>
<path fill="#000000" opacity="1.000000" stroke="none" 
	d="
M427.357910,809.170410 
	C424.243805,820.637939 421.104401,831.678101 418.212341,842.782593 
	C417.324402,846.192017 415.906189,847.811035 412.088867,847.480225 
	C407.622894,847.093262 403.087219,847.194641 398.601929,847.444946 
	C394.987427,847.646729 393.255096,846.292786 392.237701,842.779785 
	C386.827179,824.097656 381.205627,805.476624 375.634430,786.841248 
	C375.176605,785.309875 374.549500,783.829163 373.472260,780.874512 
	C371.460632,787.535583 369.879700,792.717712 368.330780,797.909485 
	C363.911072,812.723816 359.391602,827.509949 355.168671,842.380249 
	C354.056152,846.297852 352.128021,847.756470 348.107544,847.463440 
	C343.631317,847.137207 339.112366,847.290344 334.615662,847.393555 
	C332.095764,847.451355 330.538239,846.579102 329.860718,844.052185 
	C321.251312,811.943481 312.608673,779.843750 303.999603,747.734924 
	C303.836670,747.127319 303.979187,746.437805 303.979187,744.848450 
	C310.625824,744.848450 317.185730,744.596008 323.710754,744.963440 
	C326.625793,745.127625 326.528778,748.436462 327.052460,750.532959 
	C330.914551,765.993530 334.601990,781.497559 338.358795,796.984497 
	C339.839386,803.087952 341.356873,809.182434 343.038116,816.014832 
	C345.394928,813.152405 345.839203,810.241333 346.647766,807.559998 
	C352.406952,788.462158 358.181854,769.367737 363.719727,750.205200 
	C364.946045,745.961731 367.018768,744.421509 371.479828,744.566711 
	C385.850311,745.034485 382.453308,742.760803 386.299286,755.762817 
	C392.141602,775.513977 397.696899,795.350037 403.379944,815.148438 
	C403.559662,815.774414 403.803436,816.382080 404.413544,818.139648 
	C407.983185,804.025574 411.311096,790.960144 414.587402,777.881714 
	C416.968475,768.376953 419.442535,758.890503 421.543396,749.323059 
	C422.356140,745.621765 424.134613,744.383911 427.741638,744.605774 
	C431.559937,744.840637 435.410889,744.800964 439.234924,744.617859 
	C443.457184,744.415588 444.872864,745.577271 443.577820,750.124329 
	C438.024384,769.623657 432.782990,789.211853 427.357910,809.170410 
z"/>
<path fill="#000000" opacity="1.000000" stroke="none" 
	d="
M427.610321,720.842224 
	C422.195435,720.694702 417.179901,721.463013 412.402588,720.133301 
	C411.317291,718.634766 411.635864,717.086609 411.634247,715.622375 
	C411.610321,693.961853 411.757141,672.299622 411.505890,650.641968 
	C411.448151,645.666870 413.173920,644.100342 417.838806,644.620361 
	C420.307281,644.895630 422.841705,644.807190 425.328949,644.633606 
	C429.108276,644.369873 432.454132,644.529846 432.365051,649.816528 
	C448.667358,639.895874 463.928131,639.343750 478.470734,653.148804 
	C480.324768,651.495911 482.140564,649.598694 484.224762,648.066467 
	C494.118164,640.793030 511.071228,640.801697 520.957581,648.154541 
	C528.588623,653.830078 530.958679,662.245728 531.215698,671.053101 
	C531.652954,686.036133 531.271851,701.041687 531.397034,716.036438 
	C531.425110,719.397522 530.343018,721.016846 526.861267,720.883728 
	C522.702698,720.724731 518.537109,720.627014 514.376648,720.677490 
	C510.946960,720.719055 509.839691,719.210327 509.859253,715.820068 
	C509.937103,702.328247 509.942657,688.831055 509.630951,675.343750 
	C509.437744,666.984436 505.127167,662.566589 497.710083,662.194214 
	C488.739075,661.743958 483.553833,665.645508 482.517822,674.319763 
	C481.888245,679.591187 482.066620,684.962585 481.946106,690.290527 
	C481.746552,699.114624 481.454681,707.940674 481.505798,716.764160 
	C481.524109,719.925659 480.268707,720.922974 477.421509,720.869019 
	C473.424622,720.793274 469.425446,720.738525 465.428680,720.788330 
	C461.996155,720.830994 460.876648,719.226379 460.916870,715.862488 
	C461.056244,704.200928 460.965881,692.536438 460.936432,680.873108 
	C460.931396,678.877502 460.874725,676.875549 460.707672,674.887817 
	C460.077271,667.385010 456.174744,663.008545 449.593658,662.335571 
	C441.035614,661.460327 435.543365,664.685120 433.173706,672.012817 
	C432.088959,675.367249 431.794067,678.822571 431.818207,682.340393 
	C431.894775,693.502502 431.870270,704.665344 431.952728,715.827393 
	C431.973328,718.613464 431.595306,720.891602 427.610321,720.842224 
z"/>
<path fill="#000000" opacity="1.000000" stroke="none" 
	d="
M290.744507,708.184753 
	C282.702789,697.964905 282.731812,697.794800 293.399231,691.744629 
	C294.267761,691.252014 295.198059,690.857422 296.026794,690.307556 
	C299.987854,687.678955 302.666656,687.260742 305.856079,692.305908 
	C312.209961,702.356567 326.070862,705.608093 336.912964,700.527771 
	C341.379517,698.434814 344.764252,695.247925 344.563629,689.869751 
	C344.370911,684.703796 340.574158,682.391357 336.278900,681.045654 
	C327.565704,678.315857 318.730042,675.975952 310.022736,673.228577 
	C297.696625,669.339294 288.172821,662.616089 286.393585,648.554138 
	C284.926453,636.958740 289.265289,627.811340 298.224335,620.652893 
	C312.082733,609.579834 342.116669,611.766541 353.794067,623.235107 
	C357.700500,627.071594 360.619385,632.093445 361.362213,637.711548 
	C358.640472,639.027771 355.824005,640.393616 353.004272,641.752686 
	C345.302399,645.465027 345.301819,645.463806 340.384033,638.963745 
	C334.668335,631.408997 317.727356,629.978577 310.797394,636.465576 
	C305.378632,641.537964 306.449768,649.554688 313.152344,653.193787 
	C319.827545,656.817993 327.450867,657.385620 334.578644,659.563965 
	C338.865723,660.874084 343.234161,661.939941 347.465912,663.404724 
	C357.433289,666.854980 364.585266,673.219177 366.260406,684.031555 
	C368.102356,695.920898 364.394012,706.067200 354.922760,713.739441 
	C338.522614,727.024719 304.740570,725.518677 290.744507,708.184753 
z"/>
<path fill="#000000" opacity="1.000000" stroke="none" 
	d="
M707.930664,722.392273 
	C691.129150,723.233093 678.111816,717.296692 671.032715,702.257751 
	C663.660706,686.596741 664.434875,670.785339 674.849426,656.456360 
	C684.046204,643.802917 701.116943,639.553589 717.619385,645.037781 
	C731.228760,649.560425 740.252747,662.560913 740.300659,678.128174 
	C740.337219,690.015015 741.602051,688.253357 730.412598,688.339966 
	C718.097229,688.435364 705.780640,688.361633 693.464539,688.361633 
	C691.832520,688.361633 690.200500,688.361633 688.606201,688.361633 
	C688.027039,696.877991 694.710083,703.868164 703.610474,704.631531 
	C710.666504,705.236633 716.843445,703.132812 721.761108,698.119873 
	C724.026855,695.810120 725.849426,695.850220 728.221497,697.517456 
	C731.866211,700.079346 736.026062,701.901550 739.806519,705.516296 
	C732.199951,716.747803 721.728821,722.109253 707.930664,722.392273 
M695.135681,662.530762 
	C691.533752,664.719666 689.588135,667.936157 688.839478,672.335327 
	C699.112122,672.335327 709.025452,672.335327 719.075806,672.335327 
	C715.974915,660.607727 706.730713,656.776489 695.135681,662.530762 
z"/>
<path fill="#000000" opacity="1.000000" stroke="none" 
	d="
M466.111694,849.291504 
	C452.164581,848.046875 444.047791,841.892456 442.649994,831.843323 
	C440.259827,814.659912 448.745697,803.851624 466.248047,801.655151 
	C472.542725,800.865234 478.848175,800.641907 485.182098,800.645813 
	C489.797668,800.648621 490.966614,798.587891 488.977905,794.317688 
	C486.453247,788.896790 478.360291,786.503235 470.859558,788.994263 
	C467.458099,790.123901 464.501556,792.045105 462.382324,794.906982 
	C460.900452,796.908203 459.428009,797.161560 457.276367,796.257874 
	C454.364746,795.034851 451.386230,793.958862 448.395782,792.938843 
	C445.446625,791.932861 445.075104,790.187683 446.362488,787.543396 
	C448.161102,783.848999 450.690613,780.825806 454.079803,778.552734 
	C466.181396,770.436218 479.358948,769.515137 492.754395,773.983276 
	C505.160248,778.121277 510.994568,787.342651 511.323578,801.252563 
	C511.441742,806.249023 511.131958,811.261963 511.395111,816.247437 
	C511.931580,826.410645 509.279388,836.855103 514.723694,847.268066 
	C507.862335,847.268066 501.746521,847.426575 495.644562,847.204346 
	C492.364990,847.084900 492.119751,843.591187 490.073669,841.057800 
	C483.506531,847.182800 475.417358,849.422668 466.111694,849.291504 
M467.060699,818.384827 
	C461.362244,823.088806 461.020935,827.938232 466.297180,830.714539 
	C475.280396,835.441406 490.886108,829.745422 489.779388,816.435242 
	C482.429810,816.584595 474.982513,815.146362 467.060699,818.384827 
z"/>
<path fill="#000000" opacity="1.000000" stroke="none" 
	d="
M645.015381,847.417603 
	C629.840088,850.900574 615.823853,850.370361 604.069763,839.219849 
	C596.794861,832.318359 593.741516,823.404419 593.266479,813.680786 
	C592.593506,799.905762 595.966125,787.549438 607.714111,778.893127 
	C627.377930,764.404175 660.505676,770.963684 665.450989,801.525269 
	C665.957825,804.657776 666.110657,807.772583 666.382263,810.906006 
	C666.816345,815.913330 664.512756,817.207764 659.950562,817.145813 
	C647.134949,816.971680 634.315247,817.069580 621.497437,817.126831 
	C619.374634,817.136292 617.172119,816.732300 615.144958,817.725525 
	C615.061646,826.555054 623.809998,833.635498 633.106689,832.448547 
	C638.580078,831.749756 643.407593,829.742737 647.240540,825.750244 
	C649.026794,823.889526 650.642151,823.470276 652.882141,824.923340 
	C656.765076,827.442017 660.992493,829.438049 665.033447,832.903259 
	C660.135986,840.172729 653.493591,844.674622 645.015381,847.417603 
M635.125854,789.176331 
	C627.024902,787.029297 619.445984,790.217590 616.250977,797.012329 
	C614.825500,800.043701 615.146179,801.775269 618.995605,801.663757 
	C622.143372,801.572571 625.298645,801.731445 628.445862,801.631226 
	C633.649353,801.465515 638.914917,802.172852 644.255859,801.140076 
	C644.014771,794.907715 640.620667,791.661682 635.125854,789.176331 
z"/>
<path fill="#000000" opacity="1.000000" stroke="none" 
	d="
M683.284180,827.279297 
	C682.121582,817.207092 682.706665,807.530212 682.793884,797.879639 
	C682.834595,793.374634 681.341125,791.940735 677.031860,792.290161 
	C674.452209,792.499390 671.735596,792.823853 668.680847,791.558228 
	C668.680847,786.721069 668.709717,781.765869 668.669739,776.811157 
	C668.646790,773.960754 670.509399,773.770081 672.679443,773.637329 
	C682.153076,773.057800 682.167664,773.030396 684.004822,763.638977 
	C684.577087,760.713501 685.320923,757.779358 685.465698,754.823669 
	C685.624817,751.577209 687.026062,750.692261 690.119019,750.595215 
	C704.354553,750.148376 704.302246,750.066162 704.364624,764.173401 
	C704.411682,774.818481 702.892273,773.557800 714.027710,773.656738 
	C715.527527,773.670044 717.031311,773.741150 718.526428,773.659912 
	C721.298523,773.509460 722.196533,774.792114 722.374023,777.513855 
	C723.315613,791.952515 723.382263,792.080750 709.007202,792.268677 
	C705.121338,792.319458 704.185608,793.820801 704.290100,797.342529 
	C704.487732,804.002930 704.325562,810.673401 704.356995,817.339539 
	C704.399780,826.421509 707.869080,830.404846 716.803528,830.519958 
	C721.215088,830.576782 722.577759,831.919922 722.416992,836.276062 
	C721.841431,851.877991 725.167419,849.324341 708.728516,849.228271 
	C694.923096,849.147583 686.032837,841.229919 683.284180,827.279297 
z"/>
<path fill="#000000" opacity="1.000000" stroke="none" 
	d="
M639.353149,720.877197 
	C635.659241,720.888062 634.715271,719.169678 634.720764,716.107483 
	C634.778931,683.827759 634.777100,651.547668 634.678955,619.268127 
	C634.668457,615.818909 635.869873,614.451294 639.317505,614.607056 
	C643.302673,614.787048 647.306091,614.758667 651.294250,614.615906 
	C654.334778,614.507141 655.371033,615.817444 655.366272,618.764465 
	C655.313660,651.376953 655.309570,683.989746 655.378601,716.602234 
	C655.384949,719.608032 654.188660,720.865784 651.296509,720.851074 
	C647.469910,720.831543 643.643066,720.874512 639.353149,720.877197 
z"/>
<path fill="#000000" opacity="1.000000" stroke="none" 
	d="
M376.651855,688.999878 
	C376.656769,675.530762 376.754761,662.560608 376.607300,649.593201 
	C376.566315,645.989990 377.705322,644.683167 381.429718,644.593201 
	C397.301331,644.209839 397.302490,644.103760 397.297150,659.950134 
	C397.290955,678.239868 397.147125,696.531189 397.362152,714.818298 
	C397.413361,719.173706 395.909180,720.488464 391.738800,720.802795 
	C376.645599,721.940491 376.656372,722.074585 376.657257,706.958435 
	C376.657593,701.138916 376.654022,695.319458 376.651855,688.999878 
z"/>
<path fill="#000000" opacity="1.000000" stroke="none" 
	d="
M384.310730,612.667908 
	C394.830566,612.683350 399.058746,615.972534 399.380737,624.036499 
	C399.678223,631.486145 395.500549,636.238403 388.016205,636.964111 
	C381.124268,637.632324 374.683014,632.953430 373.739105,626.593384 
	C372.663940,619.349243 376.339691,614.302551 384.310730,612.667908 
z"/>
</svg>